<?xml version="1.0" encoding="UTF-8" standalone="no"?>
<svg
   xmlns:dc="http://purl.org/dc/elements/1.1/"
   xmlns:cc="http://creativecommons.org/ns#"
   xmlns:rdf="http://www.w3.org/1999/02/22-rdf-syntax-ns#"
   xmlns:svg="http://www.w3.org/2000/svg"
   xmlns="http://www.w3.org/2000/svg"
   xmlns:sodipodi="http://sodipodi.sourceforge.net/DTD/sodipodi-0.dtd"
   xmlns:inkscape="http://www.inkscape.org/namespaces/inkscape"
   width="1280"
   height="720"
   viewBox="0 0 338.66668 190.5"
   version="1.1"
   id="svg8"
   inkscape:version="1.0.1 (3bc2e813f5, 2020-09-07)"
   sodipodi:docname="header.svg">
  <defs
     id="defs2" />
  <sodipodi:namedview
     id="base"
     pagecolor="#ffffff"
     bordercolor="#666666"
     borderopacity="1.0"
     inkscape:pageopacity="0.0"
     inkscape:pageshadow="2"
     inkscape:zoom="0.62424271"
     inkscape:cx="644.69198"
     inkscape:cy="209.76877"
     inkscape:document-units="px"
     inkscape:current-layer="layer1"
     inkscape:document-rotation="0"
     showgrid="false"
     units="px"
     inkscape:window-width="1680"
     inkscape:window-height="1025"
     inkscape:window-x="1366"
     inkscape:window-y="0"
     inkscape:window-maximized="1" />
  <metadata
     id="metadata5">
    <rdf:RDF>
      <cc:Work
         rdf:about="">
        <dc:format>image/svg+xml</dc:format>
        <dc:type
           rdf:resource="http://purl.org/dc/dcmitype/StillImage" />
        <dc:title></dc:title>
      </cc:Work>
    </rdf:RDF>
  </metadata>
  <g
     inkscape:label="Layer 1"
     inkscape:groupmode="layer"
     id="layer1">
    <path
       style="fill:#0f85c7;stroke:none;stroke-width:0.263812px;stroke-linecap:butt;stroke-linejoin:miter;stroke-opacity:1;fill-opacity:1"
       d="m 0.50666498,159.36029 c 0,0 87.21530302,-76.452456 164.25001502,-0.59073 77.03471,75.86174 174.83105,-18.64504 174.83105,-18.64504 L 340.11633,0.1964796 0.68517374,0.67661831 Z"
       id="path860"
       sodipodi:nodetypes="cscccc" />
    <path
       style="fill:#0f85c7;stroke:none;stroke-width:0.263812px;stroke-linecap:butt;stroke-linejoin:miter;stroke-opacity:1;fill-opacity:1"
       d="m 0.50666498,159.36029 c 0,0 87.21530302,-76.452456 164.25001502,-0.59073 77.03471,75.86174 174.83105,-18.64504 174.83105,-18.64504 L 340.11633,0.1964796 0.68517374,0.67661831 Z"
       id="path870"
       sodipodi:nodetypes="cscccc" />
    <path
       style="fill:#0f85c7;fill-opacity:1;stroke:none;stroke-width:0.251557px;stroke-linecap:butt;stroke-linejoin:miter;stroke-opacity:1;opacity:0.20010723"
       d="m 0.24942513,165.04331 c 0,0 87.07809187,-69.62388 163.99162487,-0.53797 76.91351,69.08592 174.556,-16.9797 174.556,-16.9797 L 339.32482,20.095695 0.42765228,20.532949 Z"
       id="path880"
       sodipodi:nodetypes="cscccc" />
    <path
       style="fill:#0f85c7;fill-opacity:1;stroke:none;stroke-width:0.251557px;stroke-linecap:butt;stroke-linejoin:miter;stroke-opacity:1;opacity:0.20010723"
       d="m 0.24942513,165.04331 c 0,0 87.07809187,-69.62388 163.99162487,-0.53797 76.91351,69.08592 174.556,-16.9797 174.556,-16.9797 L 339.32482,20.095695 0.42765228,20.532949 Z"
       id="path882"
       sodipodi:nodetypes="cscccc" />
    <path
       style="opacity:0.41904393;fill:#0f85c7;fill-opacity:1;stroke:none;stroke-width:0.217982px;stroke-linecap:butt;stroke-linejoin:miter;stroke-opacity:1"
       d="m -0.46200849,171.81319 c 0,0 87.07809249,-52.27874 163.99161849,-0.40395 76.91351,51.8748 174.556,-12.74961 174.556,-12.74961 L 338.61338,62.975848 -0.28378129,63.30417 Z"
       id="path884"
       sodipodi:nodetypes="cscccc" />
    <path
       style="opacity:0.200107;fill:#0f85c7;fill-opacity:1;stroke:none;stroke-width:0.247032px;stroke-linecap:butt;stroke-linejoin:miter;stroke-opacity:1"
       d="m 0.24942513,165.04331 c 0,0 87.11493887,-67.11327 164.06101487,-0.51857 76.94605,66.5947 174.62986,-16.36742 174.62986,-16.36742 L 339.4683,25.322459 0.42772753,25.743946 Z"
       id="path886"
       sodipodi:nodetypes="cscccc" />
  </g>
</svg>
